<svg width="200" height="78" viewBox="0 0 200 78" fill="none" xmlns="http://www.w3.org/2000/svg">
<g clip-path="url(#clip0_27_220)">
<path d="M117.068 27.3692C114.552 27.3692 112.577 27.9088 110.6 28.9858C110.6 23.2366 110.6 18.0269 110.781 16.2308L98.7419 18.3859V19.4639L99.9995 19.6434C101.615 20.0024 102.157 20.8999 102.512 23.0571C102.875 27.3692 102.693 50.3671 102.512 54.1408C105.747 54.8598 109.161 55.3994 112.576 55.3994C122.099 55.3994 127.848 49.4696 127.848 40.1262C127.848 32.7605 123.177 27.3692 117.068 27.3692ZM112.935 53.4218C112.216 53.4218 111.316 53.4218 110.779 53.2433C110.598 50.7282 110.42 40.1262 110.598 30.7839C111.676 30.4239 112.394 30.2444 113.294 30.2444C117.249 30.2444 119.405 34.9155 119.405 40.6637C119.404 47.8531 116.709 53.4218 112.935 53.4218ZM53.4621 16.9488H21.8389V18.5654L23.6359 18.7449C25.9705 19.1039 26.8701 20.5409 27.228 23.9546C27.7686 30.4228 27.5881 42.1028 27.228 47.6705C26.869 51.0851 25.9715 52.7027 23.6359 52.8801L21.8389 53.2412V54.6783H42.1422V53.2412L39.9861 52.8801C37.6505 52.7017 36.7519 51.0851 36.3929 47.6705C36.2124 45.3338 36.0329 41.5602 36.0329 36.89L40.3451 37.0695C43.0407 37.0695 44.2972 39.2256 44.8367 42.2792H46.4543V29.5263H44.8367C44.2962 32.581 43.0407 34.736 40.3451 34.736L36.0339 34.9166C36.0339 28.8073 36.2134 23.0581 36.394 19.6445H42.6817C47.5344 19.6445 50.0495 22.6981 51.8456 28.0893L53.6426 27.5498L53.4621 16.9488Z" fill="white"/>
<path d="M63.704 27.0102C72.6883 27.0102 77.18 33.1194 77.18 41.2042C77.18 48.93 72.1488 55.4003 63.1644 55.4003C54.1811 55.4003 49.6895 49.29 49.6895 41.2042C49.6895 33.4784 54.7196 27.0102 63.704 27.0102ZM63.1644 28.8073C59.2113 28.8073 58.1332 34.1975 58.1332 41.2042C58.1332 48.0315 59.9303 53.6012 63.5245 53.6012C67.654 53.6012 68.7341 48.211 68.7341 41.2042C68.7341 34.377 66.9391 28.8073 63.1644 28.8073ZM130.182 41.3847C130.182 34.018 134.854 27.0102 144.017 27.0102C151.562 27.0102 155.157 32.5809 155.157 39.9467H138.447C138.266 46.5944 141.5 51.4461 147.97 51.4461C150.845 51.4461 152.282 50.7292 154.08 49.4706L154.797 50.3681C153 52.8832 149.048 55.4003 144.017 55.4003C135.932 55.3993 130.182 49.6501 130.182 41.3847ZM138.447 37.9711L146.891 37.7906C146.891 34.1975 146.352 28.8073 143.298 28.8073C140.245 28.8073 138.625 33.8374 138.447 37.9711ZM176.541 28.4482C174.385 27.5487 171.511 27.0102 168.277 27.0102C161.63 27.0102 157.495 30.9623 157.495 35.6345C157.495 40.3067 160.547 42.2823 164.864 43.7203C169.355 45.3358 170.614 46.5944 170.614 48.7505C170.614 50.9066 168.996 52.8821 166.121 52.8821C162.708 52.8821 160.191 50.9066 158.216 45.5153L156.957 45.8764L157.138 53.7817C159.294 54.6792 163.246 55.3993 166.66 55.3993C173.668 55.3993 178.161 51.8041 178.161 46.2354C178.161 42.4618 176.183 40.3067 171.512 38.5086C166.48 36.533 164.685 35.2755 164.685 32.9389C164.685 30.6033 166.305 28.9857 168.461 28.9857C171.693 28.9857 173.849 30.9623 175.468 35.814L176.725 35.455L176.541 28.4482ZM100.537 27.7292C97.4832 25.9342 92.092 26.8307 89.2179 33.3L89.3964 27.0112L77.3595 29.3468V30.4248L78.617 30.6043C80.2356 30.7849 80.9526 31.6824 81.1331 34.019C81.4921 38.3312 81.3126 45.8785 81.1331 49.6511C80.9526 51.8051 80.2356 52.8832 78.617 53.0637L77.3595 53.2442V54.6813H94.0686V53.2442L91.9125 53.0637C90.1165 52.8832 89.5769 51.8051 89.3964 49.6511C89.0374 46.2365 89.0374 39.4092 89.2179 35.097C90.1154 33.8385 94.0686 32.7615 97.6617 35.097L100.537 27.7292Z" fill="white"/>
</g>
<defs>
<clipPath id="clip0_27_220">
<rect width="200" height="77.6" fill="white"/>
</clipPath>
</defs>
</svg>
