<svg width="120" height="59" viewBox="0 0 120 59" fill="none" xmlns="http://www.w3.org/2000/svg">
<path d="M58.7403 25.0034L31.8422 24.9978V38.2954H39.0442C39.0442 38.6208 35.3512 42.2091 29.8103 42.2091C23.7119 42.2091 16.8098 37.3955 16.6711 29.6841C16.5268 21.6925 23.4402 16.4572 29.8103 16.6836C34.9805 16.8703 36.9558 18.3475 39.8423 21.1859C39.8423 21.1859 56.0971 21.1972 57.0678 21.1972C55.5878 15.5176 47.6811 1.23803 29.6009 1.21539C13.0064 1.19275 1.08693 14.8837 1.13221 29.152C1.18598 45.6871 13.9941 57.7622 30.2235 57.7622C47.7773 57.7622 57.5574 43.3354 58.7827 32.6498C59.2355 29.4379 58.7403 25.0034 58.7403 25.0034Z" fill="white"/>
<path d="M100.635 33.0601L99.1661 31.1075L81.5104 31.1047L88.653 41.4366C81.1652 42.9053 74.0961 36.6371 74.198 29.3558C74.3027 21.9132 80.3077 16.3638 87.49 16.3893C96.7805 16.4204 103.235 24.9412 100.635 33.0601ZM111.247 45.8286C111.247 45.8286 116.491 38.9831 116.513 30.0605C116.556 12.5378 104.28 1.15881 87.1589 1.13052C72.3246 1.10788 60.8551 11.9463 58.7638 24.8931H58.761C58.3676 27.5334 58.4242 30.1482 58.7978 32.7602V32.7573C60.5919 45.5088 71.6285 57.5868 87.2579 57.5896C94.0666 57.5896 98.8803 54.6861 99.7519 54.2249L101.492 56.4973L118.868 56.4859L111.247 45.8286Z" fill="white"/>
</svg>
