<svg width="119" height="120" viewBox="0 0 119 120" fill="none" xmlns="http://www.w3.org/2000/svg">
<g clip-path="url(#clip0_27_335)">
<mask id="path-1-inside-1_27_335" fill="white">
<path d="M117.214 8.47308C116.619 7.88857 115.863 7.50161 115.045 7.36363C114.228 7.22564 113.389 7.34317 112.639 7.70058L88.4877 18.5625C88.349 18.6262 88.2159 18.6993 88.0772 18.7631C79.946 12.8804 70.258 9.61428 60.2723 9.38924C50.2867 9.1642 40.4651 11.9906 32.0843 17.5012L24.0827 9.38433C23.2152 8.49687 22.0369 7.99337 20.8047 7.98371C20.191 7.95987 19.5794 8.06876 19.0104 8.30313C18.4414 8.53751 17.9281 8.89201 17.5046 9.34308C16.6398 10.2344 16.1586 11.4371 16.1666 12.6876C16.1746 13.9381 16.671 15.1344 17.5471 16.0143L31.5814 30.2475L30.2743 31.5731L16.2382 17.34C15.3706 16.4516 14.191 15.9485 12.9581 15.9412C11.7252 15.9338 10.5398 16.4227 9.66197 17.3006C9.22862 17.7381 8.88647 18.2595 8.65589 18.8338C8.4253 19.4082 8.31098 20.0237 8.31973 20.6437C8.32995 21.8935 8.82706 23.0885 9.70264 23.9681L23.7369 38.2012L22.4298 39.5287L8.39553 25.2937C7.52739 24.4057 6.34755 23.9029 5.11453 23.8955C3.88152 23.8881 2.6959 24.3768 1.81748 25.2543C0.952213 26.1444 0.469749 27.3457 0.475639 28.5956C0.481529 29.8455 0.975293 31.0421 1.84891 31.9237L12.3132 42.5268C9.2424 50.9908 8.45878 60.1335 10.0435 69.0079C11.6282 77.8823 15.5235 86.1657 21.3261 93L13.0564 101.389C11.7691 102.672 10.9909 104.39 10.8692 106.217C10.801 107.075 10.9102 107.939 11.19 108.752C11.4697 109.566 11.9138 110.311 12.4939 110.94C13.0739 111.569 13.7771 112.069 14.5585 112.406C15.3398 112.744 16.182 112.913 17.0313 112.901C17.17 112.901 17.3086 112.901 17.4473 112.888C19.2482 112.764 20.9418 111.975 22.208 110.67L30.9916 101.762C38.9232 107.285 48.2636 110.358 57.8818 110.608C67.5 110.859 76.9835 108.276 85.1839 103.172L93.7734 111.883C94.993 113.128 96.6467 113.836 98.3769 113.854H98.4472C99.2914 113.857 100.128 113.69 100.908 113.364C101.689 113.037 102.397 112.557 102.993 111.951C104.204 110.7 104.876 109.015 104.863 107.263C104.851 105.511 104.154 103.835 102.925 102.604L95.3153 94.8862C103.202 86.4993 108.006 75.6168 108.92 64.0642C109.834 52.5116 106.804 40.9916 100.337 31.4362L117.004 14.5331C117.821 13.7562 118.302 12.6827 118.342 11.5472C118.381 10.4117 117.976 9.30644 117.214 8.47308ZM59.1619 13.125C68.104 13.1101 76.8551 15.7484 84.3371 20.715C81.4186 22.4143 78.6909 24.4305 76.2024 26.7281C70.8382 23.8946 64.869 22.4431 58.8211 22.5017C52.7732 22.5602 46.8323 24.1269 41.5224 27.0637L34.7577 20.2181C42.0742 15.5764 50.5318 13.1182 59.1619 13.125ZM4.43724 27.9056C4.51758 27.8132 4.6181 27.7412 4.73078 27.6953C4.84346 27.6494 4.96517 27.6309 5.08617 27.6412C5.34921 27.6464 5.5999 27.7554 5.78502 27.945L21.1301 43.5075C21.4833 43.8462 21.9511 44.035 22.4372 44.035C22.9234 44.035 23.3911 43.8462 23.7443 43.5075L27.6656 39.5287C28.0122 39.1771 28.2069 38.7003 28.2069 38.2031C28.2069 37.7059 28.0122 37.2291 27.6656 36.8775L12.3206 21.315C12.1309 21.1288 12.0219 20.8739 12.0173 20.6062C12.016 20.4852 12.0381 20.3652 12.0825 20.2529C12.127 20.1406 12.1928 20.0383 12.2762 19.9518C12.4513 19.7842 12.6824 19.6898 12.9233 19.6875C13.1869 19.6924 13.4383 19.8013 13.624 19.9912L28.9691 35.5537C29.1408 35.728 29.3447 35.8663 29.5691 35.9607C29.7935 36.0551 30.0341 36.1036 30.2771 36.1036C30.52 36.1036 30.7606 36.0551 30.9851 35.9607C31.2095 35.8663 31.4134 35.728 31.5851 35.5537L35.4972 31.5731C35.8438 31.2215 36.0385 30.7446 36.0385 30.2475C36.0385 29.7503 35.8438 29.2734 35.4972 28.9218L20.1521 13.3593C19.9684 13.1829 19.8611 12.9399 19.8534 12.6835C19.8458 12.427 19.9386 12.1779 20.1114 11.9906C20.2862 11.8226 20.5177 11.7288 20.7585 11.7281C21.0223 11.7322 21.274 11.8413 21.4592 12.0318L50.149 41.1243C51.5772 42.5579 52.3897 44.5053 52.4101 46.5431C52.4258 47.5296 52.2457 48.5093 51.8804 49.4238C51.5152 50.3383 50.9722 51.1689 50.2839 51.8662C49.9373 52.2178 49.7426 52.6947 49.7426 53.1918C49.7426 53.689 49.9373 54.1658 50.2839 54.5175L52.6874 56.9662L55.3016 54.315L54.0869 53.0831C55.4311 51.1612 56.1387 48.856 56.1077 46.5C56.0793 43.4807 54.8782 40.5945 52.765 38.4675L44.242 29.8237C48.7624 27.5269 53.7388 26.3036 58.7944 26.2465C63.85 26.1893 68.8521 27.2997 73.4217 29.4937C67.6737 35.6826 63.7363 43.371 62.0497 51.6993L33.1566 81C28.4557 75.0381 25.8912 67.6336 25.8834 60C25.8857 58.8232 25.9474 57.6472 26.0683 56.4768L30.5405 61.0125C31.5939 62.0852 32.8457 62.9366 34.2242 63.5177C35.6027 64.0988 37.0808 64.3982 38.5736 64.3987C40.8538 64.4046 43.0797 63.6932 44.9446 62.3625L46.0206 63.4537L48.6348 60.8025L46.3626 58.5C46.0159 58.1485 45.5458 57.951 45.0555 57.951C44.5653 57.951 44.0951 58.1485 43.7484 58.5C42.3241 59.9031 40.4096 60.6767 38.4241 60.6514C36.4386 60.6261 34.5439 59.804 33.1548 58.365L4.47422 29.2743C4.2915 29.0971 4.18512 28.854 4.1782 28.5977C4.17128 28.3414 4.26437 28.0927 4.43724 27.9056ZM12.9418 60C12.9507 55.0734 13.7275 50.1792 15.2435 45.4987L22.8107 53.1731C21.826 58.5197 22.0067 64.0201 23.3401 69.2884C24.6735 74.5567 27.1273 79.4653 30.5294 83.67L23.9736 90.3168C16.8551 81.8652 12.9433 71.1152 12.9418 60ZM59.1619 106.875C50.0856 106.887 41.21 104.166 33.6595 99.0581L40.354 92.2668C45.6663 95.4633 51.6855 97.2548 57.8586 97.4766C64.0317 97.6984 70.1608 96.3434 75.6828 93.5362L82.4938 100.444C75.4205 104.657 67.3653 106.878 59.1619 106.875ZM100.375 109.299C100.109 109.561 99.795 109.766 99.4505 109.904C99.106 110.042 98.7381 110.11 98.3678 110.104C97.9974 110.097 97.6319 110.017 97.2922 109.867C96.9524 109.718 96.645 109.502 96.3876 109.232L62.5249 74.8893L59.9107 77.5406L72.9133 90.7275C68.19 92.9061 63.0291 93.9322 57.8444 93.7235C52.6596 93.5148 47.5951 92.0771 43.057 89.5256L88.2825 43.6612C91.6784 49.8777 93.0473 57.0247 92.1931 64.0785C91.3389 71.1322 88.3055 77.7309 83.5273 82.9293L69.1066 68.3043L66.4924 70.9556L100.311 105.255C100.847 105.783 101.155 106.506 101.167 107.264C101.179 108.022 100.895 108.754 100.375 109.299ZM105.382 60C105.415 72.002 100.872 83.5524 92.7011 92.235L86.1415 85.5806C91.6142 79.6768 95.0455 72.1283 95.9179 64.0737C96.7903 56.0192 95.0565 47.8953 90.978 40.9275L97.6744 34.1362C102.712 41.7932 105.395 50.7949 105.382 60ZM114.389 11.8818L19.5975 108.019C19.0725 108.651 18.3239 109.05 17.5123 109.129C16.7007 109.209 15.8908 108.962 15.2565 108.442C15.0069 108.179 14.8159 107.864 14.6963 107.519C14.5767 107.174 14.5313 106.808 14.5632 106.444C14.6316 105.532 15.0261 104.677 15.6724 104.04L65.0651 53.9475C65.3298 53.6787 65.5078 53.3348 65.5754 52.9612C66.8952 46.1921 69.8016 39.8443 74.0491 34.4538C78.2966 29.0634 83.7605 24.7885 89.9797 21.99L114.127 11.13C114.197 11.0886 114.277 11.0669 114.358 11.0669C114.439 11.0669 114.519 11.0886 114.589 11.13C114.698 11.2331 114.672 11.5931 114.389 11.8818Z"/>
</mask>
<path d="M117.214 8.47308C116.619 7.88857 115.863 7.50161 115.045 7.36363C114.228 7.22564 113.389 7.34317 112.639 7.70058L88.4877 18.5625C88.349 18.6262 88.2159 18.6993 88.0772 18.7631C79.946 12.8804 70.258 9.61428 60.2723 9.38924C50.2867 9.1642 40.4651 11.9906 32.0843 17.5012L24.0827 9.38433C23.2152 8.49687 22.0369 7.99337 20.8047 7.98371C20.191 7.95987 19.5794 8.06876 19.0104 8.30313C18.4414 8.53751 17.9281 8.89201 17.5046 9.34308C16.6398 10.2344 16.1586 11.4371 16.1666 12.6876C16.1746 13.9381 16.671 15.1344 17.5471 16.0143L31.5814 30.2475L30.2743 31.5731L16.2382 17.34C15.3706 16.4516 14.191 15.9485 12.9581 15.9412C11.7252 15.9338 10.5398 16.4227 9.66197 17.3006C9.22862 17.7381 8.88647 18.2595 8.65589 18.8338C8.4253 19.4082 8.31098 20.0237 8.31973 20.6437C8.32995 21.8935 8.82706 23.0885 9.70264 23.9681L23.7369 38.2012L22.4298 39.5287L8.39553 25.2937C7.52739 24.4057 6.34755 23.9029 5.11453 23.8955C3.88152 23.8881 2.6959 24.3768 1.81748 25.2543C0.952213 26.1444 0.469749 27.3457 0.475639 28.5956C0.481529 29.8455 0.975293 31.0421 1.84891 31.9237L12.3132 42.5268C9.2424 50.9908 8.45878 60.1335 10.0435 69.0079C11.6282 77.8823 15.5235 86.1657 21.3261 93L13.0564 101.389C11.7691 102.672 10.9909 104.39 10.8692 106.217C10.801 107.075 10.9102 107.939 11.19 108.752C11.4697 109.566 11.9138 110.311 12.4939 110.94C13.0739 111.569 13.7771 112.069 14.5585 112.406C15.3398 112.744 16.182 112.913 17.0313 112.901C17.17 112.901 17.3086 112.901 17.4473 112.888C19.2482 112.764 20.9418 111.975 22.208 110.67L30.9916 101.762C38.9232 107.285 48.2636 110.358 57.8818 110.608C67.5 110.859 76.9835 108.276 85.1839 103.172L93.7734 111.883C94.993 113.128 96.6467 113.836 98.3769 113.854H98.4472C99.2914 113.857 100.128 113.69 100.908 113.364C101.689 113.037 102.397 112.557 102.993 111.951C104.204 110.7 104.876 109.015 104.863 107.263C104.851 105.511 104.154 103.835 102.925 102.604L95.3153 94.8862C103.202 86.4993 108.006 75.6168 108.92 64.0642C109.834 52.5116 106.804 40.9916 100.337 31.4362L117.004 14.5331C117.821 13.7562 118.302 12.6827 118.342 11.5472C118.381 10.4117 117.976 9.30644 117.214 8.47308ZM59.1619 13.125C68.104 13.1101 76.8551 15.7484 84.3371 20.715C81.4186 22.4143 78.6909 24.4305 76.2024 26.7281C70.8382 23.8946 64.869 22.4431 58.8211 22.5017C52.7732 22.5602 46.8323 24.1269 41.5224 27.0637L34.7577 20.2181C42.0742 15.5764 50.5318 13.1182 59.1619 13.125ZM4.43724 27.9056C4.51758 27.8132 4.6181 27.7412 4.73078 27.6953C4.84346 27.6494 4.96517 27.6309 5.08617 27.6412C5.34921 27.6464 5.5999 27.7554 5.78502 27.945L21.1301 43.5075C21.4833 43.8462 21.9511 44.035 22.4372 44.035C22.9234 44.035 23.3911 43.8462 23.7443 43.5075L27.6656 39.5287C28.0122 39.1771 28.2069 38.7003 28.2069 38.2031C28.2069 37.7059 28.0122 37.2291 27.6656 36.8775L12.3206 21.315C12.1309 21.1288 12.0219 20.8739 12.0173 20.6062C12.016 20.4852 12.0381 20.3652 12.0825 20.2529C12.127 20.1406 12.1928 20.0383 12.2762 19.9518C12.4513 19.7842 12.6824 19.6898 12.9233 19.6875C13.1869 19.6924 13.4383 19.8013 13.624 19.9912L28.9691 35.5537C29.1408 35.728 29.3447 35.8663 29.5691 35.9607C29.7935 36.0551 30.0341 36.1036 30.2771 36.1036C30.52 36.1036 30.7606 36.0551 30.9851 35.9607C31.2095 35.8663 31.4134 35.728 31.5851 35.5537L35.4972 31.5731C35.8438 31.2215 36.0385 30.7446 36.0385 30.2475C36.0385 29.7503 35.8438 29.2734 35.4972 28.9218L20.1521 13.3593C19.9684 13.1829 19.8611 12.9399 19.8534 12.6835C19.8458 12.427 19.9386 12.1779 20.1114 11.9906C20.2862 11.8226 20.5177 11.7288 20.7585 11.7281C21.0223 11.7322 21.274 11.8413 21.4592 12.0318L50.149 41.1243C51.5772 42.5579 52.3897 44.5053 52.4101 46.5431C52.4258 47.5296 52.2457 48.5093 51.8804 49.4238C51.5152 50.3383 50.9722 51.1689 50.2839 51.8662C49.9373 52.2178 49.7426 52.6947 49.7426 53.1918C49.7426 53.689 49.9373 54.1658 50.2839 54.5175L52.6874 56.9662L55.3016 54.315L54.0869 53.0831C55.4311 51.1612 56.1387 48.856 56.1077 46.5C56.0793 43.4807 54.8782 40.5945 52.765 38.4675L44.242 29.8237C48.7624 27.5269 53.7388 26.3036 58.7944 26.2465C63.85 26.1893 68.8521 27.2997 73.4217 29.4937C67.6737 35.6826 63.7363 43.371 62.0497 51.6993L33.1566 81C28.4557 75.0381 25.8912 67.6336 25.8834 60C25.8857 58.8232 25.9474 57.6472 26.0683 56.4768L30.5405 61.0125C31.5939 62.0852 32.8457 62.9366 34.2242 63.5177C35.6027 64.0988 37.0808 64.3982 38.5736 64.3987C40.8538 64.4046 43.0797 63.6932 44.9446 62.3625L46.0206 63.4537L48.6348 60.8025L46.3626 58.5C46.0159 58.1485 45.5458 57.951 45.0555 57.951C44.5653 57.951 44.0951 58.1485 43.7484 58.5C42.3241 59.9031 40.4096 60.6767 38.4241 60.6514C36.4386 60.6261 34.5439 59.804 33.1548 58.365L4.47422 29.2743C4.2915 29.0971 4.18512 28.854 4.1782 28.5977C4.17128 28.3414 4.26437 28.0927 4.43724 27.9056ZM12.9418 60C12.9507 55.0734 13.7275 50.1792 15.2435 45.4987L22.8107 53.1731C21.826 58.5197 22.0067 64.0201 23.3401 69.2884C24.6735 74.5567 27.1273 79.4653 30.5294 83.67L23.9736 90.3168C16.8551 81.8652 12.9433 71.1152 12.9418 60ZM59.1619 106.875C50.0856 106.887 41.21 104.166 33.6595 99.0581L40.354 92.2668C45.6663 95.4633 51.6855 97.2548 57.8586 97.4766C64.0317 97.6984 70.1608 96.3434 75.6828 93.5362L82.4938 100.444C75.4205 104.657 67.3653 106.878 59.1619 106.875ZM100.375 109.299C100.109 109.561 99.795 109.766 99.4505 109.904C99.106 110.042 98.7381 110.11 98.3678 110.104C97.9974 110.097 97.6319 110.017 97.2922 109.867C96.9524 109.718 96.645 109.502 96.3876 109.232L62.5249 74.8893L59.9107 77.5406L72.9133 90.7275C68.19 92.9061 63.0291 93.9322 57.8444 93.7235C52.6596 93.5148 47.5951 92.0771 43.057 89.5256L88.2825 43.6612C91.6784 49.8777 93.0473 57.0247 92.1931 64.0785C91.3389 71.1322 88.3055 77.7309 83.5273 82.9293L69.1066 68.3043L66.4924 70.9556L100.311 105.255C100.847 105.783 101.155 106.506 101.167 107.264C101.179 108.022 100.895 108.754 100.375 109.299ZM105.382 60C105.415 72.002 100.872 83.5524 92.7011 92.235L86.1415 85.5806C91.6142 79.6768 95.0455 72.1283 95.9179 64.0737C96.7903 56.0192 95.0565 47.8953 90.978 40.9275L97.6744 34.1362C102.712 41.7932 105.395 50.7949 105.382 60ZM114.389 11.8818L19.5975 108.019C19.0725 108.651 18.3239 109.05 17.5123 109.129C16.7007 109.209 15.8908 108.962 15.2565 108.442C15.0069 108.179 14.8159 107.864 14.6963 107.519C14.5767 107.174 14.5313 106.808 14.5632 106.444C14.6316 105.532 15.0261 104.677 15.6724 104.04L65.0651 53.9475C65.3298 53.6787 65.5078 53.3348 65.5754 52.9612C66.8952 46.1921 69.8016 39.8443 74.0491 34.4538C78.2966 29.0634 83.7605 24.7885 89.9797 21.99L114.127 11.13C114.197 11.0886 114.277 11.0669 114.358 11.0669C114.439 11.0669 114.519 11.0886 114.589 11.13C114.698 11.2331 114.672 11.5931 114.389 11.8818Z" fill="#94866B" stroke="#262626" stroke-width="2" mask="url(#path-1-inside-1_27_335)"/>
</g>
<defs>
<clipPath id="clip0_27_335">
<rect width="118.324" height="120" fill="white"/>
</clipPath>
</defs>
</svg>
