<svg width="119" height="120" viewBox="0 0 119 120" fill="none" xmlns="http://www.w3.org/2000/svg">
<g clip-path="url(#clip0_27_362)">
<path d="M47.5587 45.7506H44.8584C44.7341 43.3168 43.7259 41.0072 42.0167 39.2737C40.1907 37.4218 37.7134 36.3788 35.128 36.3756H35.1274C34.7719 36.3756 34.4296 36.2325 34.1761 35.9754C33.9224 35.7181 33.7786 35.3675 33.7786 35.0006V13.125V12.625H33.2786H25.8833H25.3833V13.125V35.0006C25.3833 35.3675 25.2396 35.7181 24.9858 35.9754C24.7323 36.2325 24.39 36.3756 24.0345 36.3756H24.0339C21.4485 36.3788 18.9713 37.4218 17.1452 39.2737C15.3194 41.1254 14.2936 43.6344 14.2905 46.25V46.2506V46.9744V47.4182L14.7312 47.4708C19.7634 48.0717 24.3974 50.5475 27.733 54.4199C31.0688 58.2924 32.8676 63.2851 32.7787 68.4288L32.7785 68.4375L32.7787 68.4462C32.8676 73.5899 31.0688 78.5826 27.733 82.4551C24.3974 86.3275 19.7634 88.8033 14.7312 89.4042L14.2905 89.4568V89.9006V116.25V116.75H14.7905H34.6274V119.5H12.9417C12.5863 119.5 12.2439 119.357 11.9904 119.1C11.7367 118.842 11.5929 118.492 11.5929 118.125V46.2509C11.5967 43.2139 12.6775 40.2806 14.6363 37.9864C16.5951 35.6923 19.3008 34.1905 22.2588 33.7534L22.6857 33.6903V33.2588V1.875C22.6857 1.50808 22.8295 1.15757 23.0833 0.900233C23.3368 0.643132 23.6791 0.5 24.0345 0.5H35.1274C35.4828 0.5 35.8251 0.643132 36.0787 0.900233C36.3324 1.15757 36.4762 1.50807 36.4762 1.875V33.2588V33.6903L36.9031 33.7534C39.8611 34.1905 42.5669 35.6923 44.5256 37.9864C46.3767 40.1543 47.4436 42.893 47.5587 45.7506ZM14.2905 86.1338V86.7126L14.8632 86.6284C19.1551 85.998 23.0703 83.7984 25.8724 80.4457C28.6722 77.0958 30.1682 72.8255 30.0811 68.4375C30.1682 64.0495 28.6722 59.7792 25.8724 56.4293C23.0703 53.0766 19.1551 50.877 14.8632 50.2466L14.2905 50.1624V50.7412V86.1338ZM25.3833 9.375V9.875H25.8833H33.2786H33.7786V9.375V3.75V3.25H33.2786H25.8833H25.3833V3.75V9.375Z" fill="#94866B" stroke="#262626"/>
<path d="M37.4761 118.125C37.4784 116.572 37.9884 115.065 38.9251 113.839C39.8618 112.613 41.1721 111.737 42.6498 111.349L43.0225 111.25V110.865V93.5625V93.156L42.6246 93.073C40.6521 92.662 38.8784 91.5734 37.6032 89.9892C36.3279 88.4048 35.6296 86.4219 35.6273 84.3747V50.625C35.6273 50.2581 35.7711 49.9076 36.0249 49.6502C36.2784 49.3931 36.6207 49.25 36.9761 49.25H59.1618C59.5173 49.25 59.8596 49.3931 60.1131 49.6502C60.3668 49.9076 60.5106 50.2581 60.5106 50.625L60.5106 84.3745L60.5106 84.375M37.4761 118.125L60.5106 84.375M37.4761 118.125C37.4762 118.492 37.62 118.843 37.8737 119.1C38.1272 119.357 38.4695 119.5 38.8249 119.5H57.313C57.6684 119.5 58.0108 119.357 58.2643 119.1C58.5179 118.843 58.6617 118.492 58.6618 118.126C58.66 116.572 58.1502 115.064 57.2134 113.838C56.2766 112.611 54.9662 111.736 53.4882 111.347L53.1154 111.249V110.863V93.5625V93.156L53.5134 93.073C55.4858 92.662 57.2595 91.5734 58.5348 89.9892C59.81 88.4049 60.5083 86.4221 60.5106 84.375M37.4761 118.125L60.5106 84.375M57.813 52.5V52H57.313H38.8249H38.3249V52.5V70.5825V70.7657L38.4433 70.9056C39.1081 71.6907 40.0313 72.2071 41.0439 72.3577L41.0891 72.3644L41.1349 72.3628C41.9415 72.3347 42.7323 72.1294 43.4525 71.7615C44.167 71.3966 44.7951 70.8803 45.2944 70.2482C46.6563 68.7628 48.4267 67.7283 50.3748 67.2782C52.3268 66.8273 54.3675 66.9839 56.2306 67.7276C56.5168 67.8505 56.7966 67.9883 57.0688 68.1407L57.813 68.5573V67.7044V52.5ZM39.0276 74.6254L38.3249 74.3138V75.0825V84.375C38.3249 85.9972 38.9603 87.5543 40.0934 88.7035C41.2268 89.853 42.7655 90.5 44.3714 90.5C44.7268 90.5 45.0691 90.6431 45.3226 90.9002C45.5764 91.1576 45.7202 91.5081 45.7202 91.875V112.5C45.7202 112.867 45.5764 113.217 45.3226 113.475C45.0691 113.732 44.7268 113.875 44.3714 113.875H44.3711C43.6333 113.875 42.9089 114.073 42.2709 114.446C41.6329 114.82 41.104 115.357 40.7365 116.003L40.3111 116.75H41.1711H54.9669H55.8269L55.4014 116.003C55.0339 115.357 54.505 114.82 53.867 114.446C53.229 114.073 52.5047 113.875 51.7668 113.875H51.7666C51.4111 113.875 51.0688 113.732 50.8153 113.475C50.5616 113.217 50.4178 112.867 50.4178 112.5V91.875C50.4178 91.5081 50.5616 91.1576 50.8153 90.9002C51.0688 90.6431 51.4111 90.5 51.7666 90.5C53.3725 90.5 54.9112 89.853 56.0445 88.7035C57.1777 87.5543 57.813 85.9972 57.813 84.375V73.125C57.813 72.6057 57.5235 72.0498 57.0936 71.5712C56.6509 71.0783 56.0114 70.6109 55.1994 70.2697L55.1994 70.2696L55.1898 70.2657C53.8106 69.7197 52.2988 69.617 50.8599 69.972C49.4211 70.327 48.1259 71.1221 47.1495 72.2481L47.148 72.2498C46.4185 73.0988 45.529 73.7906 44.5323 74.2847C43.5398 74.7766 42.4609 75.0626 41.3587 75.1262C41.166 75.1257 40.9735 75.1154 40.7819 75.0953C40.177 75.0312 39.5852 74.8727 39.0276 74.6254Z" fill="#94866B" stroke="#262626"/>
<path d="M21.6857 108.75V109.25H22.1857H27.2321V112H21.7832C21.0444 111.999 20.3347 111.701 19.8101 111.169C19.2854 110.637 18.9889 109.914 18.988 109.158V103.625H21.6857V108.75Z" fill="#94866B" stroke="#262626"/>
<path d="M31.9297 109.25H34.6273V112H31.9297V109.25Z" fill="#94866B" stroke="#262626"/>
<path d="M94.6428 38.8631L94.6349 38.8637L94.627 38.8645C94.527 38.8746 94.4211 38.875 94.2895 38.875C92.9688 38.8726 91.7005 38.3444 90.758 37.4019C89.8151 36.459 89.2738 35.1769 89.2528 33.8312C89.2319 32.4854 89.7329 31.1864 90.6461 30.2137C91.5591 29.2411 92.8106 28.6725 94.1307 28.6279C95.4508 28.5832 96.7367 29.0661 97.7111 29.9745C98.6858 30.8831 99.2711 32.1451 99.3385 33.4893C99.4059 34.8334 98.95 36.1496 98.0708 37.1543C97.1919 38.1588 95.9606 38.7716 94.6428 38.8631ZM92.5244 32.1932L92.4836 32.2409L92.4765 32.2554C92.2955 32.4793 92.1565 32.7346 92.0663 33.0088C91.9692 33.304 91.9304 33.6157 91.9521 33.9259C91.9737 34.2362 92.0555 34.5393 92.1929 34.818C92.3298 35.0959 92.5196 35.3442 92.7515 35.5487C92.9829 35.7562 93.2535 35.9147 93.5473 36.0146C93.8383 36.1135 94.146 36.1528 94.4523 36.13C95.0732 36.1061 95.6583 35.8347 96.081 35.3769C96.506 34.9164 96.7321 34.3051 96.7117 33.6775C96.6912 33.0499 96.4258 32.4548 95.9715 32.0235C95.5191 31.594 94.9163 31.3622 94.2942 31.3807H94.1727H94.1565L94.1403 31.3817C93.8307 31.4018 93.5284 31.4841 93.2509 31.6236C92.9735 31.763 92.7266 31.9568 92.5244 32.1932Z" fill="#94866B" stroke="#262626"/>
<path d="M103.403 14.8029C104.536 14.0346 105.869 13.625 107.231 13.625C109.057 13.625 110.81 14.3608 112.104 15.6728C113.398 16.985 114.126 18.7662 114.126 20.625C114.126 22.011 113.721 23.3654 112.962 24.5167C112.204 25.668 111.126 26.5642 109.867 27.0931C108.608 27.622 107.223 27.7603 105.887 27.4908C104.551 27.2212 103.322 26.5557 102.358 25.5772C101.393 24.5987 100.735 23.3512 100.468 21.9919C100.202 20.6327 100.339 19.2239 100.861 17.9439C101.384 16.664 102.269 15.5712 103.403 14.8029ZM104.896 24.1569C105.587 24.6248 106.399 24.875 107.231 24.875C108.346 24.875 109.415 24.4255 110.201 23.6277C110.988 22.8302 111.428 21.7499 111.428 20.625C111.428 19.786 111.183 18.9652 110.723 18.2665C110.262 17.5677 109.607 17.022 108.839 16.6995C108.072 16.3769 107.226 16.2924 106.411 16.4569C105.595 16.6215 104.847 17.0274 104.26 17.6223C103.674 18.2171 103.275 18.9741 103.114 19.7972C102.952 20.6202 103.035 21.4734 103.352 22.2491C103.669 23.0249 104.206 23.6891 104.896 24.1569Z" fill="#94866B" stroke="#262626"/>
<path d="M61.16 29.9377L63.7746 27.286L66.3892 29.9377L63.7746 32.5893L61.16 29.9377Z" fill="#94866B"/>
<path d="M67.6957 36.5664L70.3103 33.9147L72.9249 36.5664L70.3103 39.218L67.6957 36.5664Z" fill="#94866B"/>
<path d="M61.1589 43.193L63.7735 40.5413L66.3882 43.193L63.7735 45.8447L61.1589 43.193Z" fill="#94866B"/>
<path d="M2.00562 22.432L4.62022 19.7804L7.23483 22.432L4.62022 25.0837L2.00562 22.432Z" fill="#94866B"/>
<path d="M8.54138 29.0607L11.156 26.409L13.7706 29.0607L11.156 31.7123L8.54138 29.0607Z" fill="#94866B"/>
<path d="M2.00269 35.6873L4.61729 33.0357L7.2319 35.6873L4.61729 38.339L2.00269 35.6873Z" fill="#94866B"/>
<path d="M109.223 37.4433L111.838 34.7916L114.453 37.4433L111.838 40.0949L109.223 37.4433Z" fill="#94866B"/>
<path d="M105.525 46.9467L108.139 44.2951L110.754 46.9467L108.139 49.5984L105.525 46.9467Z" fill="#94866B"/>
<path d="M54.6231 36.5661L57.2377 33.9145L59.8523 36.5661L57.2377 39.2178L54.6231 36.5661Z" fill="#94866B"/>
<path d="M106.673 103.862L106.534 103.498L100.405 87.3651L100.262 86.9877L100.601 86.768C102.299 85.6665 103.571 84.0027 104.2 82.0571C104.829 80.1115 104.776 78.0049 104.049 76.0946L104.049 76.0943L100.063 65.5944M106.673 103.862L100.063 65.5944M106.673 103.862L107.06 103.817C108.282 103.673 109.52 103.865 110.645 104.374L110.851 103.918L110.647 104.375C111.476 104.745 112.225 105.278 112.85 105.945C113.474 106.611 113.963 107.398 114.285 108.258L114.286 108.26C114.351 108.429 114.381 108.61 114.377 108.791C114.372 108.973 114.333 109.152 114.26 109.317C114.188 109.483 114.084 109.632 113.955 109.756C113.827 109.88 113.675 109.977 113.511 110.041L113.51 110.041L96.2604 116.779C96.2603 116.78 96.2601 116.78 96.26 116.78C96.1048 116.84 95.9403 116.871 95.7745 116.871C95.504 116.871 95.2393 116.788 95.0152 116.631C94.7906 116.475 94.617 116.252 94.5182 115.992C93.9706 114.542 93.912 112.949 94.3517 111.462C94.7914 109.974 95.7043 108.678 96.9461 107.774L97.255 107.55L97.1194 107.193L90.9906 91.0488L90.8448 90.6647L90.4397 90.7333C88.4534 91.0697 86.4132 90.7008 84.6632 89.6881C82.9131 88.6753 81.5596 87.08 80.8331 85.1704L68.8733 53.6707L68.8731 53.67C68.7429 53.3287 68.7517 52.9486 68.8974 52.614C69.043 52.2797 69.3124 52.0199 69.6442 51.8892C69.6444 51.8892 69.6445 51.8891 69.6446 51.8891L90.3496 43.8009C90.3497 43.8009 90.3498 43.8009 90.3499 43.8008M106.673 103.862L90.3499 43.8008M100.063 65.5944L92.0894 44.5906L92.0893 44.5902C91.9599 44.2486 91.7028 43.9752 91.377 43.8281C91.0515 43.6812 90.6823 43.6715 90.3499 43.8008M100.063 65.5944L90.3499 43.8008M96.6734 113.666L96.8068 112.808C96.9211 112.072 97.2244 111.379 97.6868 110.799C98.1493 110.219 98.7548 109.772 99.443 109.503L99.4431 109.503C99.6079 109.439 99.7591 109.342 99.8878 109.218C100.017 109.094 100.12 108.945 100.193 108.779C100.265 108.614 100.305 108.435 100.309 108.253C100.314 108.072 100.283 107.891 100.219 107.722L92.8974 88.4753L92.8972 88.4747C92.7678 88.133 92.5107 87.8597 92.1848 87.7127L92.1839 87.7122C92.0131 87.6348 91.8283 87.5951 91.6417 87.5956L96.6734 113.666ZM96.6734 113.666L97.4827 113.35M96.6734 113.666L97.4827 113.35M97.4827 113.35L110.358 108.323L111.157 108.011L110.492 107.47C109.918 107.003 109.232 106.695 108.504 106.58C107.775 106.464 107.03 106.545 106.341 106.812L106.341 106.812C106.176 106.877 106 106.908 105.824 106.903C105.648 106.899 105.474 106.859 105.313 106.786C105.151 106.714 105.005 106.609 104.883 106.479C104.76 106.348 104.664 106.194 104.6 106.025L104.6 106.024L97.2913 86.7757L97.2912 86.7753C97.2269 86.6063 97.196 86.4258 97.2003 86.2443C97.2047 86.0629 97.2443 85.8842 97.3166 85.7186C97.389 85.5531 97.4925 85.4041 97.6211 85.2799C97.7497 85.1557 97.9007 85.0588 98.0654 84.9944C99.5629 84.4096 100.768 83.2466 101.417 81.7633C102.067 80.2801 102.109 78.5965 101.534 77.082L101.534 77.0819L97.5464 66.5819L97.5238 66.5222L97.4869 66.4702C97.0993 65.9235 96.5774 65.4879 95.9719 65.207C95.3733 64.9293 94.7138 64.8125 94.0574 64.8682C92.5871 64.8762 91.1541 65.3351 89.9466 66.1839C88.7334 67.0368 87.8055 68.2428 87.2851 69.6412L87.2849 69.6412L87.2809 69.6528C86.8812 70.8133 86.226 71.8654 85.3656 72.7294C84.5088 73.5898 83.4711 74.2411 82.331 74.6347C81.8096 74.7778 81.2719 74.8504 80.7319 74.8506L97.4827 113.35ZM83.3467 84.1782L83.3464 84.1775L80.0574 75.515L79.8001 74.8375H80.5248C80.5845 74.8375 80.6391 74.8428 80.6705 74.8459L80.6757 74.8464C80.7122 74.8499 80.7234 74.8506 80.7317 74.8506L83.3467 84.1782ZM83.3467 84.1782C83.9232 85.6898 85.0684 86.9098 86.5331 87.5686C87.9981 88.2275 89.6615 88.2702 91.1577 87.6871M83.3467 84.1782L91.1577 87.6871M91.1577 87.6871C91.3123 87.6272 91.4762 87.5963 91.6414 87.5956L91.1577 87.6871ZM113.692 110.507C113.919 110.418 114.126 110.286 114.302 110.116C114.478 109.946 114.62 109.743 114.718 109.518C114.817 109.293 114.871 109.05 114.877 108.804C114.883 108.557 114.841 108.312 114.754 108.083L113.692 110.507ZM90.2418 47.3331L90.0627 46.8615L89.5927 47.0448L72.3451 53.7742L71.8836 53.9543L72.0594 54.4175L78.4674 71.2925L78.5333 71.466L78.6964 71.5545C79.5949 72.042 80.6364 72.1878 81.6324 71.9648L81.6781 71.9546L81.7211 71.9361C82.4626 71.6164 83.1265 71.138 83.6674 70.534C84.204 69.9348 84.6069 69.2262 84.8494 68.4564C85.5969 66.5738 86.8842 64.9632 88.5437 63.8328C90.2062 62.7003 92.1654 62.1019 94.1665 62.1143C94.4771 62.1247 94.787 62.1513 95.095 62.194L95.9307 62.3099L95.6311 61.5212L90.2418 47.3331Z" fill="#94866B" stroke="#262626"/>
</g>
<defs>
<clipPath id="clip0_27_362">
<rect width="118.324" height="120" fill="white"/>
</clipPath>
</defs>
</svg>
