<svg width="119" height="120" viewBox="0 0 119 120" fill="none" xmlns="http://www.w3.org/2000/svg">
<g clip-path="url(#clip0_27_338)">
<path d="M71.447 78.6738L71.4491 78.6733C74.3514 77.9663 77.3843 78.0295 80.2556 78.857C83.1269 79.6845 85.7404 81.2485 87.8436 83.399L87.8449 83.4003C87.995 83.5527 88.1082 83.7393 88.1746 83.9453C88.2411 84.1513 88.2588 84.3705 88.2263 84.585L88.7206 84.66L88.2262 84.585C87.7871 87.4792 86.6488 90.2178 84.9133 92.5566C83.1779 94.8954 80.8993 96.7616 78.2813 97.9897C75.6633 99.2177 72.7868 99.7696 69.908 99.5965C67.0292 99.4233 64.237 98.5305 61.7801 96.9971L61.5154 97.4212L61.7801 96.9971L61.2754 96.6821L60.5107 96.2048V97.1063V114.375C60.5107 115.736 59.9773 117.041 59.0301 118.001C58.0832 118.962 56.8004 119.5 55.4643 119.5C54.1282 119.5 52.8453 118.962 51.8984 118.001C50.9512 117.041 50.4178 115.736 50.4178 114.375V97.1063V96.1848L49.6453 96.687L49.1443 97.0127C46.6888 98.5466 43.8977 99.4401 41.0199 99.6141C38.1405 99.7882 35.2633 99.2366 32.6447 98.0083C30.0261 96.78 27.7473 94.9129 26.0122 92.5731C24.2771 90.2333 23.1398 87.4936 22.7023 84.5984L22.7023 84.5981C22.6697 84.3836 22.6874 84.1644 22.7539 83.9584C22.8203 83.7524 22.9335 83.5658 23.0836 83.4134L23.0839 83.4131C24.8621 81.605 27.0042 80.2086 29.3632 79.3189C31.7221 78.4293 34.2426 78.0673 36.752 78.2577C39.2614 78.448 41.7009 79.1862 43.9035 80.422C46.1061 81.6578 48.0198 83.3622 49.5133 85.4188L50.4178 86.6645V85.125V73.125C50.4178 72.7581 50.5616 72.4076 50.8154 72.1502C51.0689 71.8931 51.4112 71.75 51.7666 71.75C52.1221 71.75 52.4644 71.8931 52.7179 72.1502C52.9717 72.4076 53.1155 72.7581 53.1155 73.125V114.375C53.1155 115.003 53.3612 115.606 53.8009 116.052C54.2409 116.498 54.839 116.75 55.4643 116.75C56.0895 116.75 56.6877 116.498 57.1276 116.052C57.5673 115.606 57.8131 115.003 57.8131 114.375V71.25C57.8131 70.8831 57.9569 70.5326 58.2106 70.2752C58.4641 70.0181 58.8064 69.875 59.1619 69.875C59.5173 69.875 59.8596 70.0181 60.1131 70.2752C60.3669 70.5326 60.5107 70.8831 60.5107 71.25V85.125V86.6727L61.4162 85.4175C63.8616 82.0279 67.4193 79.637 71.447 78.6738ZM26.8975 86.7907L25.8803 86.4471L26.272 87.4468C27.6251 90.9007 30.1977 93.7175 33.4848 95.3517V95.3574L33.7721 95.4925C35.9771 96.5291 38.4008 96.998 40.8278 96.8571C43.2549 96.7162 45.6098 95.9699 47.6835 94.685L48.5855 94.1261L47.5802 93.7863L34.7032 89.4344L34.703 89.4344C34.3644 89.3202 34.0823 89.0734 33.9207 88.7461C33.7589 88.4185 33.7319 88.0384 33.8461 87.6902C33.9603 87.3422 34.2053 87.0565 34.525 86.8942C34.8444 86.732 35.2135 86.7053 35.5518 86.8194L48.6355 91.2424L49.6333 91.5797L49.2638 90.5934C48.4878 88.5216 47.2671 86.6502 45.6896 85.1147C44.1121 83.5792 42.2172 82.4181 40.142 81.7159C38.0666 81.0138 35.8631 80.7882 33.6911 81.0557C31.519 81.3232 29.4331 82.077 27.5843 83.2622L26.7088 83.8235L27.6939 84.1568L30.0049 84.9386L30.0054 84.9388C30.3439 85.053 30.626 85.2997 30.7877 85.6271C30.9495 85.9547 30.9764 86.3347 30.8622 86.6829C30.7481 87.031 30.503 87.3166 30.1834 87.4789C29.8641 87.6411 29.495 87.6679 29.1568 87.5538C29.1567 87.5538 29.1566 87.5538 29.1566 87.5537L26.8975 86.7907ZM70.1001 96.8533C72.2684 96.9798 74.4341 96.6197 76.4437 95.8027V95.8273L77.1563 95.4925C80.5895 93.8796 83.2776 90.9904 84.6662 87.4252L85.0585 86.4179L84.0368 86.7712L81.7813 87.5512L81.7795 87.5518C81.6406 87.6005 81.4948 87.6252 81.3482 87.625C81.0309 87.6246 80.7231 87.5102 80.4796 87.3006C80.2358 87.0908 80.0721 86.799 80.0193 86.4763C79.9665 86.1535 80.0284 85.8226 80.1931 85.5427C80.3577 85.2629 80.6138 85.0531 80.9145 84.9486C80.9145 84.9486 80.9145 84.9485 80.9145 84.9485L83.2213 84.15L84.1968 83.8123L83.327 83.2562C81.4784 82.0744 79.3936 81.3235 77.2233 81.0582C75.0529 80.7928 72.8515 81.0197 70.7784 81.7223C68.7052 82.4248 66.8124 83.5854 65.2365 85.1197C63.6605 86.6539 62.4407 88.5235 61.6647 90.5932L61.2946 91.5804L62.2932 91.2424L75.3767 86.8138C75.7151 86.6996 76.0842 86.7263 76.4036 86.8886C76.7232 87.0509 76.9682 87.3365 77.0824 87.6846C77.1966 88.0328 77.1696 88.4128 77.0079 88.7404C76.8462 89.0678 76.5641 89.3145 76.2255 89.4287L76.2253 89.4288L63.3483 93.7807L62.3434 94.1203L63.2449 94.6793C65.3183 95.9648 67.673 96.7118 70.1001 96.8533Z" fill="#94866B" stroke="#262626"/>
<path d="M55.6075 63.0774L56.0336 63.5503C58.6927 66.502 61.9268 68.861 65.5308 70.4785C69.1344 72.0957 73.0296 72.9364 76.9697 72.9475C78.001 72.9478 79.0315 72.89 80.0565 72.7744L81.5003 72.6113L81.5009 72.6112C81.7396 72.5845 81.9676 72.4932 82.1608 72.3462C82.3541 72.199 82.5057 72.0013 82.5989 71.7732C82.6922 71.5449 82.7234 71.2951 82.6891 71.05C82.6548 70.8052 82.5564 70.5749 82.4051 70.3829C78.2878 65.1884 72.5009 61.6299 66.0588 60.3289L64.7819 60.071L65.9034 59.4083C69.5029 57.2814 72.4559 54.1892 74.4375 50.4705C76.419 46.7516 77.3522 42.5505 77.134 38.3283L75.9304 15.4144L75.9304 15.4136C75.9194 15.1984 75.8589 14.9892 75.7542 14.8026C75.6496 14.616 75.5037 14.4575 75.3289 14.3393C75.154 14.221 74.9549 14.1462 74.7473 14.1203C74.5398 14.0944 74.3291 14.118 74.1318 14.1895M55.6075 63.0774L74.1318 14.1895M55.6075 63.0774L55.249 63.6033C53.3118 66.4447 50.7255 68.7674 47.7117 70.3735C44.6982 71.9794 41.3467 72.8212 37.9433 72.8275C36.9372 72.8271 35.9323 72.7549 34.9361 72.6114C34.7353 72.5821 34.5431 72.507 34.3741 72.3912C34.205 72.2753 34.0634 72.1215 33.9605 71.9411C33.8576 71.7606 33.7962 71.5584 33.7814 71.3496C33.7665 71.1413 33.7985 70.9324 33.8746 70.7388C34.9516 68.0411 36.6753 65.6594 38.8887 63.8095C41.1024 61.9594 43.7358 60.6996 46.5501 60.1436L47.7397 59.9086L46.7302 59.2369C43.9856 57.4106 41.8022 54.8373 40.4304 51.8104C39.0587 48.7835 38.5543 45.4258 38.9753 42.1213L38.9843 42.0506L38.9732 41.9802C38.9646 41.926 38.9504 41.8822 38.9404 41.8544C38.9384 41.8488 38.9364 41.8435 38.9346 41.8387C38.8211 40.6748 38.7938 39.5038 38.8529 38.3357C38.8529 38.3356 38.8529 38.3354 38.8529 38.3353L40.0435 15.4141L40.0435 15.4136C40.0545 15.1984 40.115 14.9892 40.2196 14.8026C40.3243 14.616 40.4702 14.4575 40.645 14.3393C40.8199 14.221 41.019 14.1462 41.2266 14.1203C41.4341 14.0944 41.6448 14.118 41.8421 14.1895L41.8421 14.1895L50.8402 17.4478C51.1474 17.5867 51.3942 17.8383 51.5298 18.1551C51.6674 18.4768 51.6792 18.8401 51.5625 19.1705C51.4459 19.5008 51.2104 19.7716 50.906 19.9298C50.6062 20.0856 50.2606 20.1213 49.9369 20.0309L43.2771 17.618L42.6425 17.3881L42.6075 18.0622L41.868 32.3122L41.7695 34.2106L42.7893 32.6064C46.5572 26.6789 52.1412 22.1735 58.6801 19.7824C58.6804 19.7823 58.6807 19.7822 58.6809 19.7821L65.7658 17.2196L66.1141 17.0936L66.095 16.7236L65.9712 14.3236L65.9364 13.6494L65.3016 13.8793L55.9154 17.2786C55.9153 17.2786 55.9153 17.2786 55.9152 17.2786M55.6075 63.0774L55.9152 17.2786M74.1318 14.1895L69.4008 15.9032L68.7659 16.1332L68.7311 15.4589L68.5352 11.6639L68.5351 11.6636C68.5242 11.4484 68.4637 11.2392 68.359 11.0526C68.2543 10.866 68.1085 10.7075 67.9336 10.5893C67.7588 10.471 67.5597 10.3962 67.3521 10.3703C67.1446 10.3444 66.9339 10.368 66.7366 10.4395L55.0134 14.6864L55.0131 14.6864C54.6775 14.8078 54.401 15.0604 54.2465 15.3908C54.0918 15.7215 54.073 16.1015 54.1944 16.4466C54.3157 16.7915 54.5663 17.0712 54.8887 17.2263C55.2108 17.3812 55.5798 17.3999 55.9152 17.2786M74.1318 14.1895L55.9152 17.2786M59.8995 62.4165L58.5164 62.3347L59.5285 63.2809C64.3933 67.8289 70.7976 70.3067 77.4158 70.1993L78.649 70.1793L77.7501 69.3349C73.4524 65.298 67.9057 62.8974 62.0558 62.544L62.0552 62.544L59.8995 62.4165ZM42.7476 50.3637L42.7513 50.363C44.2859 53.9551 47.1412 56.8019 50.7136 58.2969C54.2897 59.7935 58.3008 59.8167 61.8935 58.3616L61.8937 58.3615C65.7693 56.7899 69.0611 54.0274 71.3079 50.4631C73.5546 46.899 74.644 42.7115 74.4239 38.4885C74.4239 38.4885 74.4239 38.4884 74.4239 38.4884L73.3664 18.081L73.3315 17.4068L72.6968 17.6368L59.5813 22.388L59.5807 22.3882C55.8337 23.7513 52.4037 25.8814 49.5039 28.6458C46.6042 31.4099 44.2967 34.7491 42.7244 38.4555C41.9217 40.3357 41.5096 42.3633 41.5136 44.4117C41.5175 46.4604 41.9375 48.4865 42.7476 50.3637ZM51.7978 62.4166L49.3806 62.5703V62.5537L48.8457 62.5912C46.5858 62.7497 44.3942 63.442 42.446 64.6125C40.4978 65.783 38.8473 67.399 37.6259 69.3309L37.1373 70.1037L38.0516 70.0981C40.7668 70.0814 43.4447 69.4568 45.8938 68.2692C48.3429 67.0817 50.5026 65.3605 52.2189 63.2292L52.9314 62.3446L51.7978 62.4166Z" fill="#94866B" stroke="#262626"/>
<path d="M94.747 16.5285L94.7469 16.5286C94.4432 16.6891 94.0914 16.7259 93.7625 16.6321C93.4336 16.5383 93.1503 16.3201 92.9721 16.0199C92.972 16.0199 92.972 16.0198 92.972 16.0198L88.8579 9.08267C88.2568 7.93073 87.9984 6.62587 88.1145 5.32686C88.2311 4.02357 88.7197 2.78372 89.5196 1.75886L89.5302 1.74521L89.5399 1.73084C90.0866 0.92049 90.8624 0.298932 91.7637 -0.0525887C92.6616 -0.402774 93.6426 -0.468854 94.5778 -0.242491C95.8063 0.117289 96.8736 0.902379 97.5933 1.97855L97.8304 2.3331L98.2179 2.15484C99.3517 1.63327 100.63 1.53249 101.829 1.86953C102.765 2.17887 103.587 2.77322 104.181 3.57339C104.778 4.37642 105.116 5.34734 105.148 6.35374L105.149 6.36955L105.151 6.38529C105.274 7.67223 105.021 8.96729 104.424 10.1088C103.828 11.2489 102.915 12.1849 101.8 12.8013L94.747 16.5285ZM93.4835 2.36499L93.4531 2.36474L93.423 2.36817C93.0644 2.40886 92.7193 2.52801 92.4113 2.71702C92.1095 2.90228 91.8506 3.15021 91.6515 3.44386C91.1952 4.02445 90.9072 4.7215 90.8189 5.4573C90.7299 6.19991 90.8478 6.95317 91.1596 7.63185L91.1704 7.65543L91.1836 7.67776L94.3839 13.0853L94.6264 13.495L95.0476 13.2728L100.583 10.3516L100.616 10.3347L100.636 10.3246L100.655 10.3129C101.274 9.92633 101.771 9.37025 102.09 8.71C102.407 8.05208 102.535 7.31709 102.458 6.58963C102.44 6.35897 102.385 5.95477 102.215 5.56075C102.042 5.1605 101.721 4.71039 101.14 4.52898L101.121 4.52307L101.102 4.51868C100.566 4.39678 100.008 4.42293 99.4851 4.59429C98.9696 4.76335 98.5084 5.06743 98.1478 5.47467C97.9793 5.63554 97.7735 5.74931 97.5502 5.8057C97.3216 5.86347 97.082 5.85918 96.8554 5.79321C96.6288 5.72723 96.4225 5.60167 96.2576 5.42835C96.0968 5.25928 95.9809 5.05059 95.9217 4.82206C95.8327 4.29097 95.6078 3.792 95.2687 3.37518C94.9247 2.95239 94.4754 2.62919 93.9663 2.43956L93.9451 2.43163L93.9232 2.42567C93.7798 2.38663 93.6321 2.36623 93.4835 2.36499Z" fill="#94866B" stroke="#262626"/>
<path d="M115.216 61.9979L115.226 62.0115L115.238 62.0242C115.894 62.7445 116.32 63.6508 116.458 64.6235C116.595 65.5928 116.439 66.5811 116.012 67.4581C115.391 68.5957 114.398 69.4756 113.207 69.9469L112.818 70.1008L112.901 70.5109C113.152 71.753 112.963 73.0448 112.368 74.1587C111.944 74.8908 111.335 75.4935 110.605 75.9048C109.872 76.3173 109.044 76.5223 108.208 76.4989L108.201 76.4987L108.194 76.4987C107.896 76.4989 107.599 76.4769 107.305 76.4329L107.305 76.4328L107.295 76.4316C106.033 76.2683 104.846 75.7311 103.882 74.8863C102.919 74.0424 102.221 72.9288 101.877 71.6839L99.8782 63.8836C99.8782 63.8835 99.8782 63.8833 99.8781 63.8832C99.7918 63.5432 99.8364 63.1828 100.002 62.8757C100.168 62.5688 100.442 62.3392 100.766 62.2314C100.766 62.2314 100.766 62.2314 100.766 62.2313L108.357 59.7139C109.592 59.3808 110.897 59.4179 112.112 59.821C113.332 60.2256 114.411 60.9816 115.216 61.9979ZM113.587 66.2487L113.667 66.1249V66.0601C113.793 65.6748 113.816 65.2624 113.734 64.8644C113.647 64.4441 113.445 64.0561 113.152 63.7447C112.695 63.1675 112.089 62.7282 111.401 62.4765C110.704 62.2219 109.951 62.1695 109.226 62.3255L109.199 62.3312L109.174 62.3396L103.258 64.2971L102.814 64.4439L102.931 64.8963L104.488 70.9569V71.0138L104.514 71.0905C104.745 71.7872 105.166 72.4042 105.73 72.8691C106.293 73.3326 106.974 73.6259 107.695 73.7143C107.922 73.7477 108.325 73.7852 108.745 73.7043C109.174 73.6217 109.676 73.402 109.978 72.8716L109.988 72.8551L109.996 72.838C110.232 72.3383 110.331 71.7839 110.283 71.2326C110.236 70.6886 110.048 70.1666 109.737 69.7196C109.62 69.5161 109.555 69.2849 109.551 69.048C109.547 68.8053 109.605 68.566 109.721 68.3543C109.836 68.1427 110.004 67.9665 110.206 67.8427C110.404 67.7221 110.628 67.6552 110.857 67.6478C111.39 67.6772 111.922 67.565 112.398 67.3227C112.882 67.0768 113.292 66.706 113.587 66.2487Z" fill="#94866B" stroke="#262626"/>
<path d="M13.444 20.9106H13.2672C12.0173 20.872 10.803 20.4759 9.76422 19.7673C8.72335 19.0573 7.90101 18.0623 7.39327 16.8966L7.38665 16.8814L7.37904 16.8666C6.92945 15.9968 6.751 15.0083 6.8679 14.0325C6.98437 13.0602 7.38842 12.1475 8.02563 11.4143C8.91664 10.4806 10.1011 9.89427 11.3725 9.75578L11.7915 9.71014L11.8174 9.28947C11.8954 8.0238 12.4094 6.82743 13.2678 5.90897C13.9783 5.21435 14.8812 4.7587 15.854 4.60264C16.8302 4.44604 17.8304 4.59847 18.7186 5.03965L18.7331 5.04686L18.7481 5.05312C19.9231 5.54463 20.9306 6.37637 21.6444 7.4458C22.3574 8.51408 22.7456 9.77202 22.7598 11.0632L22.697 19.1207C22.694 19.4729 22.5587 19.8093 22.3205 20.0619C22.0825 20.3142 21.76 20.4636 21.4193 20.4819L13.444 20.9106ZM10.3977 13.59L9.98865 13.3024C9.73608 13.6617 9.59112 14.0863 9.57025 14.5256C9.54985 14.9552 9.64886 15.3821 9.85628 15.7578C10.144 16.4199 10.6023 16.9924 11.1842 17.4148C11.7737 17.8427 12.4675 18.1002 13.1914 18.159L13.2116 18.1606H13.2319H13.3114H13.3247L13.338 18.1599L19.5407 17.8299L20.0106 17.8049L20.0141 17.3344L20.0622 11.0081L20.0622 11.0081V11.0043V10.9631V10.9481L20.0613 10.933C20.0171 10.1993 19.7684 9.49267 19.3433 8.8955C18.9244 8.30702 18.351 7.84839 17.6874 7.57212C17.3212 7.37068 16.9063 7.27591 16.489 7.29928C16.0604 7.32329 15.6481 7.47086 15.3005 7.72382L15.2519 7.75913L15.2132 7.80492C14.8567 8.22577 14.6188 8.73534 14.5236 9.28015C14.4296 9.81761 14.4778 10.3706 14.6633 10.8831C14.7244 11.1108 14.727 11.3507 14.6707 11.5798C14.6131 11.8146 14.4958 12.0292 14.3314 12.2023C14.167 12.3754 13.9614 12.501 13.7354 12.5673C13.51 12.6334 13.2717 12.6385 13.0439 12.5821C12.7208 12.499 12.389 12.4555 12.0555 12.4526C11.6869 12.4377 11.3191 12.4988 10.9747 12.6323C10.6274 12.7669 10.3114 12.972 10.046 13.2346L10.3977 13.59Z" fill="#94866B" stroke="#262626"/>
<path d="M3.72166 58.7954L3.73446 58.7854L3.74659 58.7746C4.70433 57.9247 5.88683 57.3804 7.14627 57.2085C8.40416 57.0368 9.68427 57.244 10.8275 57.8049L17.9189 61.4571L18.1476 61.013L17.919 61.4571C18.2246 61.6144 18.4614 61.8851 18.579 62.2157C18.6966 62.5465 18.6854 62.9106 18.5477 63.2331L15.371 70.6668C14.8163 71.7985 13.9579 72.7471 12.8957 73.4038C11.83 74.0626 10.6026 74.4009 9.35588 74.3801L9.35588 74.3801H9.34754H9.34706H9.34659H9.34611H9.34563H9.34516H9.34468H9.3442H9.34373H9.34325H9.34278H9.3423H9.34182H9.34135H9.34087H9.34039H9.33992H9.33944H9.33897H9.33849H9.33802H9.33754H9.33706H9.33659H9.33611H9.33564H9.33516H9.33469H9.33421H9.33373H9.33326H9.33278H9.33231H9.33183H9.33136H9.33088H9.33041H9.32993H9.32946H9.32898H9.32851H9.32803H9.32756H9.32708H9.32661H9.32613H9.32566H9.32518H9.32471H9.32423H9.32376H9.32328H9.32281H9.32233H9.32186H9.32139H9.32091H9.32044H9.31996H9.31949H9.31901H9.31854H9.31807H9.31759H9.31712H9.31664H9.31617H9.3157H9.31522H9.31475H9.31427H9.3138H9.31333H9.31285H9.31238H9.3119H9.31143H9.31096H9.31048H9.31001H9.30954H9.30906H9.30859H9.30812H9.30764H9.30717H9.3067H9.30622H9.30575H9.30528H9.3048H9.30433H9.30386H9.30338H9.30291H9.30244H9.30196H9.30149H9.30102H9.30055H9.30007H9.2996H9.29913H9.29865H9.29818H9.29771H9.29724H9.29676H9.29629H9.29582H9.29535H9.29487H9.2944H9.29393H9.29346H9.29298H9.29251H9.29204H9.29157H9.2911H9.29062H9.29015H9.28968H9.28921H9.28873H9.28826H9.28779H9.28732H9.28685H9.28638H9.2859H9.28543H9.28496H9.28449H9.28402H9.28354H9.28307H9.2826H9.28213H9.28166H9.28119H9.28071H9.28024H9.27977H9.2793H9.27883H9.27836H9.27789H9.27741H9.27694H9.27647H9.276H9.27553H9.27506H9.27459H9.27412H9.27365H9.27317H9.2727H9.27223H9.27176H9.27129H9.27082H9.27035H9.26988H9.26941H9.26894H9.26847H9.26799H9.26752H9.26705H9.26658H9.26611H9.26564H9.26517H9.2647H9.26423H9.26376H9.26329H9.26282H9.26235H9.26188H9.26141H9.26094H9.26047H9.26H9.25953H9.25906H9.25859H9.25812H9.25765H9.25718H9.25671H9.25624H9.25577H9.2553H9.25483H9.25436H9.25389H9.25342H9.25295H9.25248H9.25201H9.25154H9.25107H9.2506H9.25013H9.24966H9.24919H9.24872H9.24825H9.24778H9.24731H9.24684H9.24637H9.2459H9.24543H9.24496H9.24449H9.24402H9.24356H9.24309H9.24262H9.24215H9.24168H9.24121H9.24074H9.24027H9.2398H9.23933H9.23886H9.23839H9.23792H9.23746H9.23699H9.23652H9.23605H9.23558H9.23511H9.23464H9.23417H9.2337H9.23324H9.23277H9.2323H9.23183H9.23136H9.23089H9.23042H9.22995H9.22949H9.22902H9.22855H9.22808H9.22761H9.22714H9.22667H9.22621H9.22574H9.22527H9.2248H9.22433H9.22386H9.22339H9.22293H9.22246H9.22199H9.22152H9.22105H9.22058H9.22012H9.21965H9.21918H9.21871H9.21824H9.21778H9.21731H9.21684H9.21637H9.2159H9.21544H9.21497H9.2145H9.21403H9.21356H9.2131H9.21263H9.21216H9.21169H9.21122H9.21076H9.21029H9.20982H9.20935H9.20888H9.20842H9.20795H9.20748H9.20701H9.20655H9.20608H9.20561H9.20514H9.20468H9.20421H9.20374H9.20327H9.20281H9.20234H9.20187H9.2014H9.20093H9.20047H9.2H9.19953H9.19907H9.1986H9.19813H9.19766H9.1972H9.19673H9.19626H9.19579H9.19533H9.19486H9.19439H9.19392H9.19346H9.19299H9.19252H9.19206H9.19159H9.19112H9.19065H9.19019H9.18972H9.18925H9.18879H9.18832H9.18785H9.18738H9.18692H9.18645H9.18598H9.18552H9.18505H9.18458H9.18412H9.18365H9.18318H9.18271H9.18225H9.18178H9.18131H9.18085H9.18038H9.17991H9.17945H9.17898H9.17851H9.17805H9.17758H9.17711H9.17665H9.17618H9.17571H9.17525H9.17478H9.17431H9.17385H9.17338H9.17291H9.17245H9.17198H9.17151H9.17105H9.17058H9.17011H9.16965H9.16918H9.16871H9.16825H9.16778H9.16731H9.16685H9.16638H9.16591H9.16545H9.16498H9.16452H9.16405H9.16358H9.16312H9.16265H9.16218H9.16172H9.16125H9.16078H9.16032H9.15985H9.15939H9.15892H9.15845H9.15799H9.15752H9.15705H9.15659H9.15612H9.15565H9.15519H9.15472H9.15426H9.15379H9.15332H9.15286H9.15239H9.15193H9.15146H9.15099H9.15053H9.15006H9.14959H9.14913H9.14866H9.1482H9.14773H9.14726H9.1468H9.14633H9.14586H9.1454H9.14493H9.14447H9.144H9.14353H9.14307H9.1426H9.14214H9.14167H9.1412H9.14074H9.14027H9.13981H9.13934H9.13887H9.13841H9.13794H9.13748H9.13701H9.13654H9.13608H9.13561H9.13515H9.13468H9.13421H9.13375H9.13328H9.13282H9.13235H9.13188H9.13142H9.13095H9.13049H9.13002H9.12956H9.12909H9.12862H9.12816H9.12769H9.12723H9.12676H9.12629H9.12583H9.12536H9.1249H9.12443H9.12396H9.1235H9.12303H9.12257H9.1221H9.12164H9.12117H9.1207H9.12024H9.11977H9.11931H9.11884H9.11837H9.11791H9.11744H9.11698H9.11651H9.11604H9.11558H9.11511H9.11465H9.11418H9.11372H9.11325H9.11278H9.11232H9.11185H9.11139H9.11092H9.11046H9.10999H9.10952H9.10906H9.10859H9.10813H9.10766H9.10719V74.3799L9.09664 74.3802C8.13225 74.4005 7.18394 74.1233 6.37731 73.5843C5.57378 73.0473 4.94827 72.2756 4.58409 71.3698L4.52418 71.1962C4.13145 70.0186 4.15928 68.7382 4.60273 67.5794L4.75413 67.1837L4.38874 66.9694C3.31152 66.3375 2.48565 65.3413 2.05664 64.1533C1.75896 63.196 1.75843 62.1688 2.05525 61.211C2.35306 60.2501 2.93539 59.4068 3.72166 58.7954ZM12.8836 69.5938L12.8981 69.5685L12.9095 69.5417L15.3832 63.7592L15.5662 63.3316L15.1529 63.1182L9.5984 60.2511L9.56632 60.2339L9.56464 60.233C9.1202 59.998 8.62482 59.8781 8.12286 59.8844L8.11815 59.8845C7.15111 59.9059 6.22075 60.2592 5.47897 60.8855L5.47896 60.8855L5.4752 60.8887C5.30318 61.0369 5.00731 61.3194 4.78864 61.6935C4.56846 62.0702 4.39794 62.5932 4.58678 63.1705L4.59287 63.1891L4.60039 63.2072C4.81273 63.7173 5.15662 64.1612 5.59696 64.4919C6.03136 64.8182 6.54374 65.0223 7.08202 65.083C7.30721 65.1281 7.518 65.2313 7.69396 65.3833C7.87442 65.5393 8.01196 65.7413 8.09195 65.9696C8.17195 66.1979 8.19135 66.4438 8.14803 66.6824C8.10582 66.9148 8.00565 67.1317 7.8579 67.3124C7.48272 67.6957 7.21372 68.1716 7.07717 68.6922C6.93865 69.2204 6.94124 69.7764 7.0847 70.3033L7.09915 70.3563L7.12478 70.405C7.32949 70.7935 7.64025 71.1154 8.02117 71.3318C8.39448 71.5439 8.81942 71.6455 9.24743 71.625C9.97491 71.6518 10.6958 71.4788 11.3339 71.1247C11.9792 70.7665 12.5148 70.2369 12.8836 69.5938Z" fill="#94866B" stroke="#262626"/>
<path d="M21.2344 30.9748C20.9807 30.7174 20.8369 30.3669 20.8369 30C20.8369 29.6331 20.9807 29.2826 21.2344 29.0252C21.488 28.7681 21.8303 28.625 22.1857 28.625H24.0345C24.39 28.625 24.7323 28.7681 24.9858 29.0252C25.2395 29.2826 25.3833 29.6331 25.3833 30C25.3833 30.3669 25.2395 30.7174 24.9858 30.9748C24.7323 31.2319 24.39 31.375 24.0345 31.375H22.1857C21.8303 31.375 21.488 31.2319 21.2344 30.9748Z" fill="#94866B" stroke="#262626"/>
<path d="M33.2785 31.375H31.4297C31.0743 31.375 30.732 31.2319 30.4785 30.9748C30.2247 30.7174 30.0809 30.3669 30.0809 30C30.0809 29.6331 30.2247 29.2826 30.4785 29.0252C30.732 28.7681 31.0743 28.625 31.4297 28.625H33.2785C33.634 28.625 33.9763 28.7681 34.2298 29.0252C34.4836 29.2826 34.6274 29.6331 34.6274 30C34.6274 30.3669 34.4836 30.7174 34.2298 30.9748C33.9763 31.2319 33.634 31.375 33.2785 31.375Z" fill="#94866B" stroke="#262626"/>
<path d="M28.6834 27.2248C28.4299 27.4819 28.0875 27.625 27.7321 27.625C27.3767 27.625 27.0343 27.4819 26.7808 27.2248C26.5271 26.9674 26.3833 26.6169 26.3833 26.25V24.375C26.3833 24.0081 26.5271 23.6576 26.7808 23.4002C27.0343 23.1431 27.3767 23 27.7321 23C28.0875 23 28.4299 23.1431 28.6834 23.4002C28.9371 23.6576 29.0809 24.0081 29.0809 24.375V26.25C29.0809 26.6169 28.9371 26.9674 28.6834 27.2248Z" fill="#94866B" stroke="#262626"/>
<path d="M29.0809 33.75V35.625C29.0809 35.9919 28.9371 36.3424 28.6834 36.5998C28.4299 36.8569 28.0875 37 27.7321 37C27.3767 37 27.0343 36.8569 26.7808 36.5998C26.5271 36.3424 26.3833 35.9919 26.3833 35.625V33.75C26.3833 33.3831 26.5271 33.0326 26.7808 32.7752C27.0343 32.5181 27.3767 32.375 27.7321 32.375C28.0875 32.375 28.4299 32.5181 28.6834 32.7752C28.9371 33.0326 29.0809 33.3831 29.0809 33.75Z" fill="#94866B" stroke="#262626"/>
<path d="M23.137 57.1502C23.3908 57.4076 23.5346 57.7581 23.5346 58.125C23.5346 58.4919 23.3908 58.8424 23.137 59.0998C22.8835 59.3569 22.5412 59.5 22.1858 59.5H20.337C19.9815 59.5 19.6392 59.3569 19.3857 59.0998C19.1319 58.8424 18.9882 58.4919 18.9882 58.125C18.9882 57.7581 19.1319 57.4076 19.3857 57.1502C19.6392 56.8931 19.9815 56.75 20.337 56.75H22.1858C22.5412 56.75 22.8835 56.8931 23.137 57.1502Z" fill="#94866B" stroke="#262626"/>
<path d="M31.4298 59.5H29.581C29.2255 59.5 28.8832 59.3569 28.6297 59.0998C28.376 58.8424 28.2322 58.4919 28.2322 58.125C28.2322 57.7581 28.376 57.4076 28.6297 57.1502C28.8832 56.8931 29.2255 56.75 29.581 56.75H31.4298C31.7852 56.75 32.1276 56.8931 32.3811 57.1502C32.6348 57.4076 32.7786 57.7581 32.7786 58.125C32.7786 58.4919 32.6348 58.8424 32.3811 59.0998C32.1276 59.3569 31.7852 59.5 31.4298 59.5Z" fill="#94866B" stroke="#262626"/>
<path d="M26.8346 51.5252C27.0884 51.7826 27.2322 52.1331 27.2322 52.5V54.375C27.2322 54.7419 27.0884 55.0924 26.8346 55.3498C26.5811 55.6069 26.2388 55.75 25.8834 55.75C25.5279 55.75 25.1856 55.6069 24.9321 55.3498C24.6783 55.0924 24.5345 54.7419 24.5345 54.375V52.5C24.5345 52.1331 24.6783 51.7826 24.9321 51.5252C25.1856 51.2681 25.5279 51.125 25.8834 51.125C26.2388 51.125 26.5811 51.2681 26.8346 51.5252Z" fill="#94866B" stroke="#262626"/>
<path d="M24.9321 60.9002C25.1856 60.6431 25.5279 60.5 25.8834 60.5C26.2388 60.5 26.5811 60.6431 26.8346 60.9002C27.0884 61.1576 27.2322 61.5081 27.2322 61.875V63.75C27.2322 64.1169 27.0884 64.4674 26.8346 64.7248C26.5811 64.9819 26.2388 65.125 25.8834 65.125C25.5279 65.125 25.1856 64.9819 24.9321 64.7248C24.6783 64.4674 24.5345 64.1169 24.5345 63.75V61.875C24.5345 61.5081 24.6783 61.1576 24.9321 60.9002Z" fill="#94866B" stroke="#262626"/>
<path d="M88.7428 54.875H90.5916C90.947 54.875 91.2894 55.0181 91.5429 55.2752C91.7966 55.5326 91.9404 55.8831 91.9404 56.25C91.9404 56.6169 91.7966 56.9674 91.5429 57.2248C91.2894 57.4819 90.947 57.625 90.5916 57.625H88.7428C88.3874 57.625 88.045 57.4819 87.7915 57.2248C87.5378 56.9674 87.394 56.6169 87.394 56.25C87.394 55.8831 87.5378 55.5326 87.7915 55.2752C88.045 55.0181 88.3874 54.875 88.7428 54.875Z" fill="#94866B" stroke="#262626"/>
<path d="M100.787 55.2752C101.041 55.5326 101.184 55.8831 101.184 56.25C101.184 56.6169 101.041 56.9674 100.787 57.2248C100.533 57.4819 100.191 57.625 99.8356 57.625H97.9868C97.6314 57.625 97.289 57.4819 97.0355 57.2248C96.7818 56.9674 96.638 56.6169 96.638 56.25C96.638 55.8831 96.7818 55.5326 97.0355 55.2752C97.289 55.0181 97.6314 54.875 97.9868 54.875H99.8356C100.191 54.875 100.533 55.0181 100.787 55.2752Z" fill="#94866B" stroke="#262626"/>
<path d="M93.338 49.6502C93.5915 49.3931 93.9338 49.25 94.2892 49.25C94.6447 49.25 94.987 49.3931 95.2405 49.6502C95.4942 49.9076 95.638 50.2581 95.638 50.625V52.5C95.638 52.8669 95.4942 53.2174 95.2405 53.4748C94.987 53.7319 94.6447 53.875 94.2892 53.875C93.9338 53.875 93.5915 53.7319 93.338 53.4748C93.0842 53.2174 92.9404 52.8669 92.9404 52.5V50.625C92.9404 50.2581 93.0842 49.9076 93.338 49.6502Z" fill="#94866B" stroke="#262626"/>
<path d="M93.338 59.0252C93.5915 58.7681 93.9338 58.625 94.2892 58.625C94.6447 58.625 94.987 58.7681 95.2405 59.0252C95.4942 59.2826 95.638 59.6331 95.638 60V61.875C95.638 62.2419 95.4942 62.5924 95.2405 62.8498C94.987 63.1069 94.6447 63.25 94.2892 63.25C93.9338 63.25 93.5915 63.1069 93.338 62.8498C93.0842 62.5924 92.9404 62.2419 92.9404 61.875V60C92.9404 59.6331 93.0842 59.2826 93.338 59.0252Z" fill="#94866B" stroke="#262626"/>
<path d="M85.0451 25.75H83.1963C82.8409 25.75 82.4986 25.6069 82.2451 25.3498C81.9913 25.0924 81.8475 24.7419 81.8475 24.375C81.8475 24.0081 81.9913 23.6576 82.2451 23.4002C82.4986 23.1431 82.8409 23 83.1963 23H85.0451C85.4006 23 85.7429 23.1431 85.9964 23.4002C86.2502 23.6576 86.394 24.0081 86.394 24.375C86.394 24.7419 86.2502 25.0924 85.9964 25.3498C85.7429 25.6069 85.4006 25.75 85.0451 25.75Z" fill="#94866B" stroke="#262626"/>
<path d="M92.4404 23H94.2892C94.6447 23 94.987 23.1431 95.2405 23.4002C95.4942 23.6576 95.638 24.0081 95.638 24.375C95.638 24.7419 95.4942 25.0924 95.2405 25.3498C94.987 25.6069 94.6447 25.75 94.2892 25.75H92.4404C92.085 25.75 91.7427 25.6069 91.4891 25.3498C91.2354 25.0924 91.0916 24.7419 91.0916 24.375C91.0916 24.0081 91.2354 23.6576 91.4891 23.4002C91.7427 23.1431 92.085 23 92.4404 23Z" fill="#94866B" stroke="#262626"/>
<path d="M89.6941 21.5998C89.4406 21.8569 89.0982 22 88.7428 22C88.3874 22 88.045 21.8569 87.7915 21.5998C87.5378 21.3424 87.394 20.9919 87.394 20.625V18.75C87.394 18.3831 87.5378 18.0326 87.7915 17.7752C88.045 17.5181 88.3874 17.375 88.7428 17.375C89.0982 17.375 89.4406 17.5181 89.6941 17.7752C89.9478 18.0326 90.0916 18.3831 90.0916 18.75V20.625C90.0916 20.9919 89.9478 21.3424 89.6941 21.5998Z" fill="#94866B" stroke="#262626"/>
<path d="M87.7915 27.1502C88.045 26.8931 88.3874 26.75 88.7428 26.75C89.0982 26.75 89.4406 26.8931 89.6941 27.1502C89.9478 27.4076 90.0916 27.7581 90.0916 28.125V30C90.0916 30.3669 89.9478 30.7174 89.6941 30.9748C89.4406 31.2319 89.0982 31.375 88.7428 31.375C88.3874 31.375 88.045 31.2319 87.7915 30.9748C87.5378 30.7174 87.394 30.3669 87.394 30V28.125C87.394 27.7581 87.5378 27.4076 87.7915 27.1502Z" fill="#94866B" stroke="#262626"/>
</g>
<defs>
<clipPath id="clip0_27_338">
<rect width="118.324" height="120" fill="white"/>
</clipPath>
</defs>
</svg>
