<svg width="119" height="120" viewBox="0 0 119 120" fill="none" xmlns="http://www.w3.org/2000/svg">
<g clip-path="url(#clip0_27_380)">
<path d="M88.6216 118.725L88.6236 118.726C89.5157 119.229 90.5178 119.494 91.5369 119.497C92.8648 119.491 94.1543 119.044 95.2082 118.222C97.1756 116.682 98.1442 114.162 97.7182 111.673L97.7174 111.669L92.4082 78.8495C92.2113 77.6594 92.583 76.4428 93.4126 75.5729L93.4151 75.5703L115.908 52.3239C117.647 50.5093 118.262 47.8697 117.506 45.4542L117.503 45.4438L117.503 45.4438C116.815 43.0637 114.841 41.3024 112.435 40.9111C112.434 40.911 112.434 40.9109 112.433 40.9108L81.3515 36.1217L81.3474 36.1211C80.1784 35.9312 79.1819 35.1659 78.6862 34.0821C78.6859 34.0815 78.6857 34.0809 78.6854 34.0804L64.7866 4.2203L64.7821 4.21056L64.7822 4.21052C63.7912 1.95602 61.5877 0.508728 59.1613 0.508728C56.7359 0.508728 54.5324 1.95599 53.5414 4.21052L53.537 4.22037L53.5369 4.22032L39.6384 34.0762C39.638 34.0769 39.6377 34.0777 39.6374 34.0784C39.1428 35.1626 38.1466 35.9311 36.9761 36.1211L36.9722 36.1218L5.89066 40.9145C5.88994 40.9146 5.88923 40.9147 5.88851 40.9148C3.48271 41.3061 1.50795 43.0675 0.82073 45.4473L0.817678 45.4579L0.817562 45.4578C0.0619886 47.8737 0.677396 50.5137 2.41634 52.3283C2.41665 52.3287 2.41696 52.329 2.41727 52.3293L24.9085 75.5703L24.911 75.5729C25.7402 76.4424 26.1121 77.6585 25.9147 78.8483C25.9146 78.8488 25.9145 78.8494 25.9144 78.8499L20.6134 111.669L20.6126 111.673C20.1874 114.163 21.1555 116.683 23.1233 118.222L23.1241 118.223C25.0214 119.714 27.6113 119.912 29.7064 118.727L29.7091 118.725L57.5036 103.229C58.5351 102.652 59.7876 102.652 60.8193 103.229L88.6216 118.725ZM88.6216 118.725L60.82 103.229L88.6216 118.725ZM62.0719 100.594L62.0712 100.593C61.1796 100.095 60.1784 99.8328 59.1609 99.8319C58.1448 99.832 57.1438 100.094 56.252 100.592L56.2517 100.592L28.4547 116.083C28.4536 116.083 28.4524 116.084 28.4513 116.085C27.2598 116.773 25.7745 116.66 24.6989 115.8C23.5962 114.951 23.0599 113.549 23.3071 112.172C23.3074 112.171 23.3077 112.169 23.308 112.167L28.6159 79.3664L28.6162 79.3648C28.9725 77.2057 28.2967 75.0034 26.7988 73.4317C26.7985 73.4313 26.7982 73.431 26.7978 73.4306L4.30753 50.1851C4.3073 50.1848 4.30708 50.1846 4.30685 50.1844L4.30663 50.1842L4.66597 49.8365L62.0719 100.594ZM62.0719 100.594L89.8693 116.085C89.8704 116.085 89.8714 116.086 89.8725 116.087C91.0649 116.774 92.548 116.66 93.6241 115.802C94.7272 114.953 95.2638 113.551 95.0164 112.174C95.0162 112.172 95.0159 112.171 95.0156 112.169L89.7077 79.3682L89.7074 79.3666C89.351 77.2084 90.026 75.0071 91.5229 73.4353C91.5233 73.435 91.5237 73.4346 91.524 73.4342L114.015 50.1891C114.015 50.1889 114.015 50.1887 114.015 50.1885C114.988 49.1904 115.329 47.7282 114.905 46.3968C114.527 45.0611 113.414 44.066 112.051 43.8568L80.9704 39.0706C80.9696 39.0705 80.9689 39.0704 80.9681 39.0703C78.8942 38.7299 77.1209 37.3632 76.2424 35.4214L76.2401 35.4166L62.3424 5.56119C62.3417 5.55946 62.3409 5.55772 62.3401 5.55599C61.781 4.2896 60.5376 3.47085 59.1613 3.47085C57.7859 3.47085 56.5425 4.28968 55.9834 5.55599L42.0835 35.4166L42.0812 35.4215C41.2027 37.3632 39.4292 38.73 37.3553 39.0703C37.3546 39.0704 37.3539 39.0705 37.3532 39.0706L6.27276 43.8513C4.90864 44.0605 3.79659 45.0557 3.4189 46.3913L62.0719 100.594Z" fill="#94866B" stroke="#262626"/>
<path d="M53.6153 57.626C52.8771 57.626 52.2666 57.0171 52.2666 56.2512C52.2666 52.8746 49.567 50.1266 46.2206 50.1266C42.8751 50.1266 40.1745 52.8746 40.1745 56.2512C40.1745 57.0172 39.5648 57.626 38.8258 57.626C38.0877 57.626 37.4772 57.0171 37.4772 56.2512C37.4772 51.3428 41.3987 47.3768 46.2206 47.3768C51.0433 47.3768 54.9639 51.3428 54.9639 56.2512C54.9639 57.0172 54.3542 57.626 53.6153 57.626Z" fill="#94866B" stroke="#262626"/>
<path d="M77.6481 57.626C76.9099 57.626 76.2994 57.0171 76.2994 56.2512C76.2994 52.8746 73.5998 50.1266 70.2534 50.1266C66.9079 50.1266 64.2074 52.8746 64.2074 56.2512C64.2074 57.0172 63.5976 57.626 62.8587 57.626C62.1205 57.626 61.51 57.0171 61.51 56.2512C61.51 51.3428 65.4315 47.3768 70.2534 47.3768C75.0762 47.3768 78.9968 51.3428 78.9968 56.2512C78.9968 57.0172 78.387 57.626 77.6481 57.626Z" fill="#94866B" stroke="#262626"/>
<path d="M49.939 85.7708L49.1982 86.0653L49.7858 86.604C52.3613 88.965 55.6682 90.342 59.1388 90.4984L59.162 90.4994L59.1852 90.4983C62.8071 90.325 66.2457 88.8416 68.8804 86.3192L69.4815 85.7437L68.6912 85.4832C65.6139 84.4686 62.4045 83.9264 59.1693 83.8743L59.1584 83.8742L59.1475 83.8745C55.9926 83.9612 52.8765 84.603 49.939 85.7708ZM71.3275 83.0331L71.7096 83.3556C73.7268 80.9659 75.2059 78.1604 76.0447 75.1334L76.2202 74.4999H75.5629H42.7606H42.1023L42.2789 75.1341C43.1636 78.3109 44.7447 81.2457 46.9036 83.7181L47.1494 83.9996L47.489 83.8436C51.1639 82.1556 55.1336 81.2311 59.1654 81.1246C63.2669 81.1644 67.3267 81.9688 71.1415 83.4972L71.3275 83.0331ZM40.6745 71.7502H77.648C78.3871 71.7502 78.9967 72.3582 78.9967 73.1251C78.9967 76.4026 76.8749 81.4476 73.277 85.6931C69.6876 89.9287 64.7306 93.2486 59.1613 93.2486C53.5924 93.2486 48.6354 89.9287 45.0459 85.6931C41.4478 81.4475 39.3258 76.4026 39.3258 73.1251C39.3258 72.3584 39.9362 71.7502 40.6745 71.7502Z" fill="#94866B" stroke="#262626"/>
</g>
<defs>
<clipPath id="clip0_27_380">
<rect width="118.324" height="120" fill="white"/>
</clipPath>
</defs>
</svg>
