<svg width="30" height="30" viewBox="0 0 30 30" fill="none" xmlns="http://www.w3.org/2000/svg">
<g clip-path="url(#clip0_27_186)">
<path d="M22.4531 24.1751C22.4531 22.5412 23.5684 21.1679 25.0793 20.7742C24.7954 20.7003 24.4974 20.6609 24.1903 20.6609C22.2494 20.6609 20.676 22.2342 20.676 24.1751C20.676 25.5777 21.4977 26.7878 22.6858 27.3516C22.9905 27.1618 23.2867 26.9602 23.5757 26.7491C22.8852 26.1074 22.4531 25.1918 22.4531 24.1751Z" fill="#94866B"/>
<path d="M13.2009 6.74814C13.2009 5.11415 14.316 3.74086 15.8266 3.34741C15.5428 3.27348 15.245 3.23389 14.9381 3.23389C12.9972 3.23389 11.4238 4.80722 11.4238 6.74814C11.4238 8.68906 12.9972 10.2624 14.9381 10.2624C15.245 10.2624 15.5428 10.2228 15.8266 10.1489C14.316 9.75519 13.2009 8.3819 13.2009 6.74814Z" fill="#94866B"/>
<path d="M22.8063 5.71703C22.8063 4.77884 23.0249 3.89215 23.4129 3.10342C22.9981 2.80931 22.5676 2.5358 22.1222 2.2854C21.434 3.25403 21.0293 4.43826 21.0293 5.71703C21.0293 8.99255 23.6846 11.6478 26.9601 11.6478C27.2608 11.6478 27.5561 11.6245 27.8449 11.581C24.9928 11.1507 22.8063 8.68929 22.8063 5.71703Z" fill="#94866B"/>
<path d="M23.759 15.7725C23.759 15.1264 24.108 14.5622 24.6276 14.2569C24.3666 14.1037 24.0631 14.0154 23.7388 14.0154C22.7686 14.0154 21.9817 14.8023 21.9817 15.7725C21.9817 16.743 22.7686 17.5296 23.7388 17.5296C24.0631 17.5296 24.3666 17.4415 24.6276 17.2884C24.108 16.9831 23.759 16.4189 23.759 15.7725Z" fill="#94866B"/>
<path d="M17.3851 15.1722C17.3851 15.7551 16.9125 16.228 16.3293 16.228C15.7463 16.228 15.2737 15.7551 15.2737 15.1722C15.2737 14.5892 15.7463 14.1163 16.3293 14.1163C16.9125 14.1163 17.3851 14.5892 17.3851 15.1722Z" fill="#94866B"/>
<path d="M17.9315 24.1752C17.9315 24.6177 17.5729 24.9763 17.1304 24.9763C16.688 24.9763 16.3293 24.6177 16.3293 24.1752C16.3293 23.7328 16.688 23.3741 17.1304 23.3741C17.5729 23.3741 17.9315 23.7328 17.9315 24.1752Z" fill="#94866B"/>
<path d="M4.39293 4.39544C1.56006 7.22831 0 10.9946 0 15.0009C0 23.2903 6.70807 29.9991 14.9982 29.9991C19.0045 29.9991 22.7708 28.439 25.6036 25.6061C31.4653 19.7447 31.4658 10.2576 25.6036 4.39544C19.742 -1.46622 10.2551 -1.46668 4.39293 4.39544ZM28.5374 10.993C23.7016 12.4448 19.6832 7.14019 22.2558 2.89398C25.25 4.69551 27.524 7.57576 28.5374 10.993ZM27.3553 21.825C26.8158 21.1008 26.0438 20.5792 25.1511 20.3556C24.9158 20.2968 24.6771 20.4398 24.6181 20.6751C24.559 20.9104 24.7023 21.1491 24.9376 21.2082C25.7526 21.4123 26.4395 21.9353 26.8547 22.6593C25.7675 24.3368 24.3343 25.77 22.657 26.8572C20.3819 25.546 20.6985 22.1814 23.1432 21.2981C23.3714 21.2155 23.4895 20.9637 23.4071 20.7355C23.3247 20.5071 23.0727 20.3892 22.8445 20.4714C19.9049 21.5334 19.295 25.4599 21.8234 27.3573C19.7992 28.4798 17.4722 29.1202 14.9982 29.1202C7.21275 29.1204 0.878906 22.7863 0.878906 15.0009C0.878906 4.44282 12.1216 -2.40487 21.4886 2.46437C18.5403 7.38121 23.1731 13.4919 28.7613 11.8419C29.521 15.1536 29.0771 18.7193 27.3553 21.825Z" fill="white"/>
<path d="M23.7366 13.5924C22.5256 13.5924 21.5403 14.5777 21.5403 15.789C21.5403 17.0002 22.5256 17.9856 23.7366 17.9856C24.9479 17.9856 25.9332 17.0002 25.9332 15.789C25.9332 14.5777 24.9479 13.5924 23.7366 13.5924ZM23.7366 17.1067C23.0102 17.1067 22.419 16.5157 22.419 15.789C22.419 15.0625 23.0102 14.4713 23.7366 14.4713C24.4633 14.4713 25.0545 15.0625 25.0545 15.789C25.0545 16.5157 24.4633 17.1067 23.7366 17.1067Z" fill="white"/>
<path d="M17.8221 15.1884C17.8221 14.3642 17.1515 13.6934 16.3271 13.6934C15.5027 13.6934 14.832 14.364 14.832 15.1884C14.832 16.0128 15.5027 16.6837 16.3271 16.6837C17.1515 16.6837 17.8221 16.0128 17.8221 15.1884ZM15.7109 15.1884C15.7109 14.8488 15.9872 14.5723 16.3271 14.5723C16.667 14.5723 16.9435 14.8488 16.9435 15.1884C16.9435 15.5283 16.667 15.8048 16.3271 15.8048C15.9872 15.8048 15.7109 15.5283 15.7109 15.1884Z" fill="white"/>
<path d="M17.1282 22.9512C16.4441 22.9512 15.8877 23.5076 15.8877 24.1915C15.8877 24.8756 16.4441 25.432 17.1282 25.432C17.8121 25.432 18.3688 24.8756 18.3688 24.1915C18.3688 23.5076 17.8121 22.9512 17.1282 22.9512ZM17.1282 24.5531C16.9289 24.5531 16.7666 24.3908 16.7666 24.1915C16.7666 23.9921 16.9289 23.8298 17.1282 23.8298C17.3276 23.8298 17.4899 23.9921 17.4899 24.1915C17.4899 24.3908 17.3276 24.5531 17.1282 24.5531Z" fill="white"/>
<path d="M18.4446 7.24664C18.2105 7.18416 17.9693 7.32355 17.907 7.55815C17.549 8.90123 16.3273 9.83942 14.9359 9.83942C13.2403 9.83942 11.8611 8.45995 11.8611 6.76439C11.8611 5.06906 13.2403 3.68959 14.9359 3.68959C16.2481 3.68959 17.4163 4.52318 17.8434 5.76372C17.9223 5.99329 18.1723 6.11551 18.4018 6.03632C18.6312 5.95735 18.7532 5.70718 18.6742 5.47784C18.1254 3.88254 16.623 2.81091 14.9359 2.81091C12.7558 2.81091 10.9822 4.58452 10.9822 6.76439C10.9822 8.94472 12.7558 10.7181 14.9359 10.7181C16.7248 10.7181 18.2959 9.51189 18.7559 7.78452C18.8186 7.54991 18.679 7.30913 18.4446 7.24664Z" fill="white"/>
</g>
<defs>
<clipPath id="clip0_27_186">
<rect width="30" height="30" fill="white"/>
</clipPath>
</defs>
</svg>
